<svg width="208" height="20" viewBox="0 0 208 20" fill="none" xmlns="http://www.w3.org/2000/svg">
  <path
    d="M38.992 4.731C40.1187 4.731 41.0547 5.017 41.8 5.589C42.5453 6.161 43.048 6.93667 43.308 7.916H41.735C41.5183 7.36133 41.1717 6.92367 40.695 6.603C40.227 6.27367 39.6507 6.109 38.966 6.109C38.42 6.109 37.9303 6.24333 37.497 6.512C37.0723 6.78067 36.7343 7.16633 36.483 7.669C36.2403 8.163 36.119 8.74367 36.119 9.411C36.119 10.0697 36.2403 10.6503 36.483 11.153C36.7343 11.647 37.0723 12.0283 37.497 12.297C37.9303 12.5657 38.42 12.7 38.966 12.7C39.6507 12.7 40.227 12.5397 40.695 12.219C41.1717 11.8897 41.5183 11.452 41.735 10.906H43.308C43.048 11.8853 42.5453 12.661 41.8 13.233C41.0547 13.7963 40.1187 14.078 38.992 14.078C38.1253 14.078 37.3583 13.883 36.691 13.493C36.0237 13.0943 35.508 12.544 35.144 11.842C34.78 11.1313 34.598 10.321 34.598 9.411C34.598 8.501 34.78 7.695 35.144 6.993C35.508 6.28233 36.0237 5.72767 36.691 5.329C37.3583 4.93033 38.1253 4.731 38.992 4.731ZM48.9206 6.72C49.7526 6.72 50.42 6.98867 50.9226 7.526C51.4253 8.06333 51.6766 8.83033 51.6766 9.827V14H50.1946V9.983C50.1946 9.34167 50.03 8.84767 49.7006 8.501C49.3713 8.14567 48.9206 7.968 48.3486 7.968C47.7593 7.968 47.287 8.15867 46.9316 8.54C46.5763 8.91267 46.3986 9.463 46.3986 10.191V14H44.9166V4.38H46.3986V8.41C46.5893 7.87267 46.91 7.45667 47.3606 7.162C47.8113 6.86733 48.3313 6.72 48.9206 6.72ZM56.4128 6.746C57.0628 6.746 57.6175 6.90633 58.0768 7.227C58.5361 7.54767 58.8611 7.97233 59.0518 8.501V6.837H60.5338V14H59.0518V12.336C58.8611 12.8647 58.5361 13.2893 58.0768 13.61C57.6175 13.9307 57.0628 14.091 56.4128 14.091C55.7888 14.091 55.2298 13.9437 54.7358 13.649C54.2505 13.3543 53.8691 12.9297 53.5918 12.375C53.3145 11.8203 53.1758 11.166 53.1758 10.412C53.1758 9.66667 53.3145 9.01667 53.5918 8.462C53.8691 7.90733 54.2505 7.48267 54.7358 7.188C55.2298 6.89333 55.7888 6.746 56.4128 6.746ZM56.8678 8.046C56.2091 8.046 55.6805 8.25833 55.2818 8.683C54.8918 9.099 54.6968 9.67533 54.6968 10.412C54.6968 11.1487 54.8918 11.7293 55.2818 12.154C55.6805 12.57 56.2091 12.778 56.8678 12.778C57.2838 12.778 57.6565 12.6827 57.9858 12.492C58.3151 12.2927 58.5751 12.0153 58.7658 11.66C58.9565 11.3047 59.0518 10.8887 59.0518 10.412C59.0518 9.944 58.9565 9.53233 58.7658 9.177C58.5751 8.813 58.3151 8.53567 57.9858 8.345C57.6565 8.14567 57.2838 8.046 56.8678 8.046ZM66.0433 12.713V14H65.1333C64.3706 14 63.7899 13.818 63.3913 13.454C63.0013 13.0813 62.8063 12.466 62.8063 11.608V8.098H61.7793V6.837H62.8063V5.056H64.3013V6.837H66.0303V8.098H64.3013V11.634C64.3013 12.0413 64.3749 12.323 64.5223 12.479C64.6783 12.635 64.9469 12.713 65.3283 12.713H66.0433Z"
    fill="#334D6E" />
  <g clip-path="url(#clip0)">
    <path
      d="M4.99996 14.3001H4.71001L4.50499 14.5051L2.36663 16.6435V3.33342C2.36663 2.80335 2.80323 2.36675 3.33329 2.36675H16.6666C17.1967 2.36675 17.6333 2.80335 17.6333 3.33342V13.3334C17.6333 13.8635 17.1967 14.3001 16.6666 14.3001H4.99996Z"
      stroke="#C2CFE0" stroke-width="1.4" />
  </g>
  <defs>
    <clipPath id="clip0">
      <rect width="20" height="20" fill="white" />
    </clipPath>
  </defs>
</svg>